<?xml version="1.0" encoding="UTF-8"?>
<svg width="752pt" height="752pt" version="1.1" viewBox="0 0 752 752" xmlns="http://www.w3.org/2000/svg">
 <path d="m557.86 200.78h-20.836v-23.68c0-8.0508-6.1562-14.207-14.207-14.207h-9.4727c-7.5781 0-14.207 6.1562-14.207 14.207v23.68h-246.26v-23.68c0-8.0508-6.1562-14.207-14.207-14.207h-9.4727c-7.5781 0-14.207 6.1562-14.207 14.207v23.68h-20.836c-17.051 0-31.258 14.68-31.258 32.676v322.51c0 17.996 14.207 32.676 31.258 32.676h363.71c17.051 0 31.258-14.68 31.258-32.676l-0.003907-322.51c0-17.996-14.207-32.676-31.258-32.676zm-6.6289 37.887v61.566l-350.45-0.003907v-61.562zm-350.45 312.56v-213.11h350.45v213.11zm72.457-175.23h-35.52c-5.6836 0-10.418 4.7344-10.418 10.418v35.52c0 5.6836 4.7344 10.418 10.418 10.418h35.52c5.6836 0 10.418-4.7344 10.418-10.418v-35.52c0-5.6797-4.7344-10.418-10.418-10.418z"/>
</svg>
